<?xml version="1.0" encoding="utf-8"?>
<!-- Generator: Adobe Illustrator 21.0.0, SVG Export Plug-In . SVG Version: 6.00 Build 0)  -->
<svg version="1.0" id="Layer_1" xmlns="http://www.w3.org/2000/svg" xmlns:xlink="http://www.w3.org/1999/xlink" x="0px" y="0px"
	 viewBox="0 0 50 50" style="enable-background:new 0 0 50 50;" xml:space="preserve">
<style type="text/css">
	.st0{fill-rule:evenodd;clip-rule:evenodd;fill:#312C30;}
	.st1{fill:#312C30;}
</style>
<g>
	<g>
		<path class="st0" d="M20.5,25.1v16.6c0,0.2,0.2,0.4,0.4,0.4h6.2c0.2,0,0.4-0.2,0.4-0.4V24.9H32c0.2,0,0.4-0.2,0.4-0.4l0.4-5.1
			c0-0.3-0.2-0.5-0.4-0.5h-4.9v-3.6c0-0.8,0.7-1.5,1.5-1.5h3.4c0.2,0,0.4-0.2,0.4-0.4V8.3c0-0.2-0.2-0.4-0.4-0.4h-5.8
			c-3.4,0-6.2,2.8-6.2,6.2v4.9h-3.1c-0.2,0-0.4,0.2-0.4,0.4v5.1c0,0.2,0.2,0.4,0.4,0.4h3.1V25.1z"/>
	</g>
</g>
<g>
	<path class="st1" d="M161.4-67.3c-1.2,0-2.1,0.9-2.1,2.1c0,1.2,0.9,2.1,2.1,2.1c1.2,0,2.1-0.9,2.1-2.1
		C163.5-66.4,162.6-67.3,161.4-67.3z M152.1-64.6c-4.9,0-8.8,4-8.8,8.8s4,8.8,8.8,8.8c4.9,0,8.8-4,8.8-8.8S156.9-64.6,152.1-64.6z
		 M152.1-50.1c-3.1,0-5.7-2.5-5.7-5.7c0-3.1,2.5-5.7,5.7-5.7c3.1,0,5.7,2.5,5.7,5.7C157.7-52.6,155.2-50.1,152.1-50.1z M169.9-63.1
		c0-6-4.8-10.8-10.8-10.8h-14.2c-6,0-10.8,4.8-10.8,10.8v14.2c0,6,4.8,10.8,10.8,10.8h14.2c6,0,10.8-4.8,10.8-10.8V-63.1z
		 M166.5-48.9c0,4.1-3.3,7.4-7.4,7.4h-14.2c-4.1,0-7.4-3.3-7.4-7.4v-14.2c0-4.1,3.3-7.4,7.4-7.4h14.2c4.1,0,7.4,3.3,7.4,7.4V-48.9z"
		/>
</g>
<g>
	<g>
		<path class="st1" d="M153.6,7.8c-10.8-1-19.8,8-18.8,18.8c0.7,8.3,7.4,14.9,15.7,15.7c10.8,1,19.8-8,18.8-18.8
			C168.5,15.2,161.8,8.5,153.6,7.8z M163.4,16.5c1.6,2.2,2.7,4.9,2.8,7.8c0,0.2-0.2,0.3-0.3,0.3c-3.2-0.6-6.2-0.8-9-0.3
			c-0.1,0-0.2,0-0.3-0.2c-0.3-0.8-0.7-1.5-1-2.2c-0.1-0.1,0-0.3,0.1-0.3c2.6-1.2,5.1-2.8,7.2-5C163.1,16.3,163.3,16.3,163.4,16.5z
			 M160.8,14.2c-1.9,1.9-4.1,3.4-6.5,4.5c-0.1,0.1-0.3,0-0.3-0.1c-1.7-3.1-3.4-5.5-4.7-7.2c-0.1-0.2,0-0.4,0.2-0.4
			c0.8-0.1,1.7-0.2,2.5-0.2c3.3,0,6.4,1.1,8.8,3.1C160.9,13.9,161,14.1,160.8,14.2z M146.1,12.3c1.2,1.5,3.1,3.9,5,7.3
			c0.1,0.1,0,0.3-0.2,0.4c-3.7,1.1-7.8,1.5-12.4,1.7c-0.2,0-0.3-0.2-0.3-0.3c1.1-4,3.8-7.4,7.5-9.2C145.9,12.2,146,12.2,146.1,12.3z
			 M138,24.8c4.9-0.2,9.9-0.6,14.4-2.1c0.1,0,0.3,0,0.3,0.1c0.3,0.6,0.5,1.2,0.8,1.8c0.1,0.1,0,0.3-0.2,0.4
			c-4.5,1.5-8.5,4.4-12.1,8.9c-0.1,0.1-0.3,0.1-0.4,0c-2-2.2-3.1-5.4-3.1-8.9C137.8,24.9,137.9,24.8,138,24.8z M143.5,36.1
			c3.3-4.2,6.9-7,11-8.2c0.1,0,0.3,0,0.3,0.2c1.1,3,2,6.3,2.5,9.9c0,0.1,0,0.2-0.2,0.3c-1.6,0.6-3.4,1-5.2,1c-3.2,0-6.1-1-8.4-2.8
			C143.4,36.4,143.4,36.2,143.5,36.1z M160.2,36.1c-0.6-3.1-1.4-6-2.3-8.7c-0.1-0.2,0.1-0.3,0.2-0.4c2.4-0.2,4.9-0.1,7.6,0.5
			c0.1,0,0.2,0.2,0.2,0.3c-0.7,3.4-2.6,6.3-5.3,8.4C160.5,36.4,160.3,36.3,160.2,36.1z"/>
	</g>
</g>
</svg>
