<?xml version="1.0" encoding="utf-8"?>
<!-- Generator: Adobe Illustrator 21.0.0, SVG Export Plug-In . SVG Version: 6.00 Build 0)  -->
<svg version="1.0" id="Layer_1" xmlns="http://www.w3.org/2000/svg" xmlns:xlink="http://www.w3.org/1999/xlink" x="0px" y="0px"
	 viewBox="0 0 50 50" style="enable-background:new 0 0 50 50;" xml:space="preserve">
<style type="text/css">
	.st0{fill-rule:evenodd;clip-rule:evenodd;fill:#312C30;}
	.st1{fill:#312C30;}
</style>
<g>
	<path class="st1" d="M34.4,13.7c-1.2,0-2.1,0.9-2.1,2.1c0,1.2,0.9,2.1,2.1,2.1c1.2,0,2.1-0.9,2.1-2.1
		C36.5,14.6,35.6,13.7,34.4,13.7z M25.1,16.4c-4.9,0-8.8,4-8.8,8.8s4,8.8,8.8,8.8s8.8-4,8.8-8.8S29.9,16.4,25.1,16.4z M25.1,30.9
		c-3.1,0-5.7-2.5-5.7-5.7c0-3.1,2.5-5.7,5.7-5.7c3.1,0,5.7,2.5,5.7,5.7C30.7,28.4,28.2,30.9,25.1,30.9z M42.9,17.9
		c0-6-4.8-10.8-10.8-10.8H17.9c-6,0-10.8,4.8-10.8,10.8v14.2c0,6,4.8,10.8,10.8,10.8h14.2c6,0,10.8-4.8,10.8-10.8V17.9z M39.5,32.1
		c0,4.1-3.3,7.4-7.4,7.4H17.9c-4.1,0-7.4-3.3-7.4-7.4V17.9c0-4.1,3.3-7.4,7.4-7.4h14.2c4.1,0,7.4,3.3,7.4,7.4V32.1z"/>
</g>
</svg>
